<svg data-v-decfdd8a="" version="1.0" xmlns="http://www.w3.org/2000/svg" xmlns:xlink="http://www.w3.org/1999/xlink" width="100%" height="100%" viewBox="0 0 340.000000 250.000000" preserveAspectRatio="xMidYMid meet" color-interpolation-filters="sRGB" style="margin: auto;"> <rect data-v-decfdd8a="" x="0" y="0" width="100%" height="100%" fill="#ffffff" fill-opacity="0" class="background"></rect> <rect data-v-decfdd8a="" x="0" y="0" width="100%" height="100%" fill="url(#watermark)" fill-opacity="1" class="watermarklayer"></rect> <g data-v-decfdd8a="" class="iconmbgsvg" transform="translate(81.91999816894531,68.60393524169922)"><g fill="#000000" hollow-target="textNormalTran"><g opacity="0.55" transform="translate(31.830001831054688,0)"><g><rect fill="#000000" fill-opacity="0" stroke-width="2" x="0" y="0" width="112.5" height="112.79213162089812" class="image-rect"></rect> <svg x="0" y="0" width="112.5" height="112.79213162089812" filtersec="colorsb2559334404" class="image-svg-svg primary" style="overflow: visible;"><svg xmlns="http://www.w3.org/2000/svg" viewBox="-0.028078868985176086 -0.04158654808998108 163.63645935058594 164.06118774414062"><title>资源 93</title><path d="M130.12 125.21c-7.16 0-14.32.05-21.48 0a6.18 6.18 0 0 0-4.84 2c-5 5.18-10.21 10.26-15.34 15.36-.38.38-.67 1.17-1.34.84s-.42-1-.42-1.59q0-19.23-.1-38.45c0-1.66.24-3.34.14-5-.46-7.18 6.39-11.78 12.47-11.69 9.41.14 18.82 0 28.23 0 7.74 0 15.49.09 23.23 0a13.7 13.7 0 0 1 11.09 5.22 5.87 5.87 0 0 1 1.3 3.18c.88 6.8.48 13.62.3 20.43-.13 5.34-6.86 9.85-11.26 9.75-7.32-.16-14.65 0-22 0z" fill="#f5b01c"></path><path d="M77.08 125.41c0 8.65-.18 17.31.06 26A12 12 0 0 1 64.47 164c-4.65-.26-9.32-.06-14-.06-7.38 0-12.21-4.76-12.24-12.17q-.08-21.36 0-42.72a6.15 6.15 0 0 0-2-4.8c-5-5-10.47-9.73-15.18-15.12-.57-.65-1.73-1.18-1.28-2.2s1.49-.44 2.27-.44h42c8.24 0 13 4.75 13 13 .06 8.6.04 17.26.04 25.92z" fill="#0f4078"></path><path d="M86.56 38.5c0-8.58.23-17.16-.06-25.72A12 12 0 0 1 99.47 0c4.54.39 9.15.1 13.72.07C120.06.06 125 4.67 125 11.53q.12 21 0 41.94a8.92 8.92 0 0 0 3 7.23c4.92 4.59 9.61 9.45 14.37 14.22.5.5 1.41 1 1.1 1.78s-1.32.51-2 .51H98.53a11.84 11.84 0 0 1-12-12.48c.22-8.73.05-17.48.05-26.21z" fill="#ee4419"></path><path d="M38.56 77.17h-26c-4 0-7.47-1.14-10.11-4.41a10.62 10.62 0 0 1-2.41-6.9c0-5.24.16-10.49-.06-15.73-.25-5.85 5.34-11.53 11.35-11.45 14.15.16 28.3 0 42.45.09a8 8 0 0 0 6.37-2.62c4.64-4.89 9.47-9.59 14.25-14.35.55-.54 1.07-1.58 2-1.18s.48 1.5.48 2.27c0 14.4.09 28.8 0 43.2 0 6.14-5.3 11-11.86 11.07-8.81.07-17.63.01-26.46.01z" fill="#29c1ca"></path></svg></svg> <!----></g></g> <g transform="translate(0,33.706064224243164)"><g data-gra="path-name" fill-rule="" class="tp-name"><g transform="scale(1)"><g><path d="M12.59 4.7Q7.4 4.7 7.29 0.54L7.29 0.54Q7.29-0.86 7.81-2.78 8.32-4.7 9.18-7.4L9.18-7.4Q10.97-12.8 12.99-17.85 15.02-22.91 17.99-29.93L17.99-29.93 19.93-34.52Q14.59-34.47 11.21-34.17 7.83-33.87 4.11-33.22L4.11-33.22Q4.43-36.41 8.1-37.65 11.78-38.9 18.42-38.9L18.42-38.9Q22.8-38.9 29.28-38.25L29.28-38.25Q34.95-37.71 37.6-37.71L37.6-37.71Q35.44-35.65 31.85-35.09 28.25-34.52 23.23-34.52L23.23-34.52Q18.8-23.61 14.48-7.73L14.48-7.73Q13.24-3.13 12.83-1.13 12.42 0.86 12.42 3.13L12.42 3.13Q12.42 3.89 12.59 4.7L12.59 4.7ZM29.12 2.05Q27.98 2.05 27.44 0.32 26.9-1.4 26.9-4.05L26.9-4.05Q26.9-8.91 29.95-17.26 33.01-25.61 36.95-32.09 40.89-38.57 43.38-38.57L43.38-38.57Q44.46-38.57 45.08-37.38 45.7-36.19 45.7-34.74L45.7-34.74Q45.7-32.25 43.89-28.09 42.08-23.93 39.14-20.07 36.19-16.21 33.06-14.37L33.06-14.37Q31.22-9.51 31.22-5.19L31.22-5.19 31.28-4.05Q31.39-4.21 31.76-5.24L31.76-5.24Q32.85-8.05 34.03-10.32 35.22-12.59 37.3-14.56 39.38-16.53 42.14-16.53L42.14-16.53Q44.62-16.53 45.76-14.94 46.89-13.34 46.89-11.18L46.89-11.18Q46.89-9.94 46.57-8.86 46.24-7.78 45.59-6.1L45.59-6.1Q45.49-5.89 45.19-5.11 44.89-4.32 44.76-3.7 44.62-3.08 44.62-2.59L44.62-2.59Q44.62-0.86 46.08-0.86L46.08-0.86Q47.27-0.86 48.89-2.05 50.51-3.24 52.08-5.24 53.64-7.24 54.78-9.56L54.78-9.56 55.64-8.64Q53.64-4.21 50.81-1.46 47.97 1.3 44.73 1.3L44.73 1.3Q42.73 1.3 41.62 0.24 40.52-0.81 40.52-2.48L40.52-2.48Q40.52-3.57 41.27-6.37L41.27-6.37Q42.08-9.02 42.08-10.32L42.08-10.32Q42.08-12.59 40.14-12.59L40.14-12.59Q38.19-12.59 36.87-10.56 35.55-8.54 33.87-4.59L33.87-4.59Q32.52-1.24 31.49 0.41 30.47 2.05 29.12 2.05L29.12 2.05ZM34.2-17.83Q36.41-19.83 38.46-23.01 40.52-26.2 41.81-29.2 43.11-32.2 43.11-33.49L43.11-33.49Q42.46-33.22 40.79-30.87 39.11-28.52 37.27-24.98 35.44-21.45 34.2-17.83L34.2-17.83ZM63.31 1.4Q61.31 1.4 60.07 0.35 58.83-0.7 58.83-2.48L58.83-2.48Q58.83-3.51 59.23-4.73 59.64-5.94 60.45-7.67L60.45-7.67Q61.15-9.18 61.53-10.24 61.91-11.29 61.91-12.1L61.91-12.1Q61.91-14.15 59.21-15.56L59.21-15.56Q58.13-12.86 56.7-10.1 55.26-7.35 54.13-5.46L54.13-5.46 53.32-7.02Q55.8-11.45 57.7-16.8L57.7-16.8Q57.15-17.34 57.15-18.26L57.15-18.26Q57.15-19.66 58.02-20.91 58.88-22.15 59.69-22.15L59.69-22.15Q60.23-22.15 60.59-21.5 60.94-20.85 60.94-20.42L60.94-20.42Q60.94-20.2 60.69-19.47 60.45-18.75 60.34-18.42L60.34-18.42Q60.4-18.04 60.77-17.69 61.15-17.34 62.18-16.69L62.18-16.69Q64.07-15.45 65.12-14.29 66.18-13.13 66.18-11.18L66.18-11.18Q66.18-9.99 65.77-8.81 65.37-7.62 64.56-5.94L64.56-5.94Q63.37-3.57 63.37-2.54L63.37-2.54Q63.37-1.3 64.72-1.3L64.72-1.3Q66.34-1.3 68.26-2.59 70.17-3.89 71.77-5.75 73.36-7.62 74.12-9.24L74.12-9.24 75.41-8.27Q74.33-5.83 72.39-3.62 70.44-1.4 68.04 0 65.64 1.4 63.31 1.4L63.31 1.4ZM79.2 2.38Q75.79 2.38 73.9 0.54 72.01-1.3 72.01-4.16L72.01-4.16Q72.01-7.29 74.12-10.94 76.22-14.59 79.52-17.04 82.82-19.5 86-19.5L86-19.5Q87.68-19.5 88.81-18.66 89.95-17.83 89.95-15.88L89.95-15.88Q89.95-13.29 87.95-10.99 85.95-8.7 82.79-7.24 79.63-5.78 76.33-5.4L76.33-5.4Q76.22-4.86 76.22-4.16L76.22-4.16Q76.22-2.76 77.01-1.35 77.79 0.05 80.38 0.05L80.38 0.05Q83.68 0.05 87.11-2.62 90.54-5.29 92.65-9.29L92.65-9.29 93.73-8.43Q91.57-3.57 87.54-0.59 83.52 2.38 79.2 2.38L79.2 2.38ZM76.93-7.4Q78.87-7.62 81.28-8.97 83.68-10.32 85.35-12.29 87.03-14.26 87.03-16.15L87.03-16.15Q87.03-16.75 86.81-16.96 86.6-17.18 86.11-17.18L86.11-17.18Q84.54-17.18 82.68-15.69 80.82-14.21 79.25-11.94 77.68-9.67 76.93-7.4L76.93-7.4ZM94.38 2.54Q92.48 2.54 91.22 1.3 89.95 0.05 89.95-2.21L89.95-2.21Q89.95-5.35 92.24-9.24 94.54-13.13 98.1-15.83 101.67-18.53 105.23-18.53L105.23-18.53Q107.61-18.53 109.2-17.31 110.8-16.1 110.8-14.21L110.8-14.21Q110.8-11.72 107.72-11.61L107.72-11.61Q109.66-11.02 109.66-9.99L109.66-9.99Q109.66-9.62 109.29-8.86 108.91-8.1 108.42-7.29L108.42-7.29Q107.56-5.89 107.07-4.83 106.58-3.78 106.58-2.86L106.58-2.86Q106.58-2.05 106.99-1.49 107.39-0.92 108.21-0.92L108.21-0.92Q109.72-0.92 112.07-3.03 114.42-5.13 116.63-9.35L116.63-9.35 117.66-8.32Q115.66-3.84 112.69-1.11 109.72 1.62 106.69 1.62L106.69 1.62Q104.53 1.62 103.37 0.19 102.21-1.24 102.21-3.08L102.21-3.08Q99.78-0.16 98.05 1.19 96.32 2.54 94.38 2.54L94.38 2.54ZM95.51-0.22Q97.4-0.22 99.91-2.94 102.42-5.67 105.61-10.05L105.61-10.05 106.69-11.51Q106.85-11.78 107.12-11.78L107.12-11.78 107.34-11.72Q107.61-12.59 107.61-13.72L107.61-13.72Q107.61-16.53 105.34-16.53L105.34-16.53Q102.97-16.53 100.37-13.99 97.78-11.45 96.02-7.94 94.27-4.43 94.27-1.94L94.27-1.94Q94.27-1.03 94.56-0.62 94.86-0.22 95.51-0.22L95.51-0.22ZM119.06 1.62Q117.28 1.62 115.88 0.38 114.47-0.86 114.47-3.24L114.47-3.24Q114.47-6.27 116.79-10.24 119.12-14.21 122.68-17.02 126.25-19.83 129.81-19.83L129.81-19.83Q132.46-19.83 132.46-18.1L132.46-18.1Q132.46-17.23 131.81-16.85L131.81-16.85Q131.38-17.45 129.92-17.45L129.92-17.45Q127.17-17.45 124.68-15.05 122.2-12.64 120.66-9.4 119.12-6.16 119.12-4L119.12-4Q119.12-2.92 119.55-2.32 119.98-1.73 120.85-1.73L120.85-1.73Q122.36-1.73 124.38-3.48 126.41-5.24 128.54-8.48 130.68-11.72 132.35-16.04L132.35-16.04Q136.57-26.85 139.48-32.87 142.4-38.9 144.56-38.9L144.56-38.9Q145.16-38.9 145.62-38.44 146.07-37.98 146.07-37.27L146.07-37.27Q146.07-36.36 145.24-34.47 144.4-32.58 142.4-28.52L142.4-28.52Q138.46-20.53 136.13-14.56 133.81-8.59 133.81-3.73L133.81-3.73Q133.81-2.43 134.05-1.97 134.3-1.51 134.89-1.51L134.89-1.51Q136.73-1.51 139.11-3.67 141.48-5.83 143.27-9.51L143.27-9.51 144.29-8.64Q142.51-4.21 139.38-1.4 136.24 1.4 133.16 1.4L133.16 1.4Q131.06 1.4 130.14 0.11 129.22-1.19 129.22-3.3L129.22-3.3Q129.22-4.54 129.65-6.81L129.65-6.81Q127-2.97 124.2-0.68 121.39 1.62 119.06 1.62L119.06 1.62ZM144.29 6.05Q144.51 3.78 145.08 2.7 145.64 1.62 147.1 0.16L147.1 0.16Q150.88-3.78 153.21-6.4 155.53-9.02 159.53-13.88L159.53-13.88Q158.77-20.53 158.55-27.66L158.55-27.66Q158.39-31.55 158.2-33.3 158.01-35.06 157.39-36.01 156.77-36.95 155.42-36.95L155.42-36.95Q153.75-36.95 152.56-35.68 151.37-34.41 150.77-32.49 150.18-30.58 150.18-28.74L150.18-28.74Q150.18-26.85 150.88-25.28L150.88-25.28Q148.4-25.28 147.24-26.39 146.07-27.5 146.07-29.39L146.07-29.39Q146.07-31.66 147.56-33.9 149.05-36.14 151.48-37.6 153.91-39.06 156.61-39.06L156.61-39.06Q160.01-39.06 161.66-36.68 163.31-34.3 163.71-31.12 164.12-27.93 164.17-23.28L164.17-23.28 164.28-19.99Q171.57-29.82 176.27-39.33L176.27-39.33Q176.76-39 177.27-38.11 177.79-37.22 177.79-36.46L177.79-36.46Q177.79-34.36 174.03-28.71 170.28-23.07 164.39-15.88L164.39-15.88Q164.82-8.21 166.06-3.32 167.3 1.57 169.57 1.57L169.57 1.57Q171.19 1.57 173.41-1.22 175.62-4 179.08-9.83L179.08-9.83 180.27-8.86Q177.84-4.11 176.03-1.32 174.22 1.46 172.33 2.89 170.44 4.32 168.22 4.32L168.22 4.32Q164.06 4.32 162.28 0.19 160.5-3.94 159.85-10.32L159.85-10.32Q155.26-4.92 150.83-0.27 146.4 4.38 144.29 6.05L144.29 6.05Z" transform="translate(-4.110000133514404, 39.33000183105469)"></path></g> <!----> <!----> <!----> <!----> <!----> <!----> <!----></g></g> <!----></g></g></g><defs v-gra="od"></defs></svg>